<svg xmlns="http://www.w3.org/2000/svg" viewBox="0 0 1558 397.81"><defs><style>.cls-1{fill:#d9d9d9;stroke-linejoin:round;stroke-width:5px;}.cls-1,.cls-5,.cls-6{stroke:#fff;}.cls-2,.cls-3{fill:none;stroke:#000;stroke-width:3px;}.cls-2,.cls-3,.cls-5,.cls-6{stroke-miterlimit:10;}.cls-3{stroke-dasharray:5.81 5.81;}.cls-4,.cls-5,.cls-6{fill:#fff;}.cls-5{stroke-width:17px;}.cls-6{stroke-width:8px;}</style></defs><g id="Capa_2" data-name="Capa 2"><g id="Capa_1-2" data-name="Capa 1"><rect x="71.5" y="34.2" width="3" height="33"/><path class="cls-1" d="M203.5,369.2a24.32,24.32,0,0,0-16,6,24.79,24.79,0,0,0-8,18h-8a5,5,0,0,0-10.05,0H154.5a5,5,0,0,0-10,0h-9a5,5,0,0,0-10,0h-7.07a5.48,5.48,0,0,0-10.93,0h-9a5.48,5.48,0,0,0-10.93,0H80.5a5,5,0,0,0-10,0h-9a5,5,0,0,0-10,0h-7a5,5,0,0,0-10,0h-8a24.79,24.79,0,0,0-8-18,24.32,24.32,0,0,0-16-6V33.2a24.38,24.38,0,0,0,16-6,24.81,24.81,0,0,0,8-18h8a5,5,0,0,0,10,0h7a5,5,0,0,0,10,0h9a5,5,0,1,0,10,0h7.07a5.48,5.48,0,0,0,10.93,0h9a5.48,5.48,0,0,0,10.93,0h7.07a5,5,0,0,0,10,0h9a5,5,0,0,0,10,0h6.95a5,5,0,0,0,10.05,0h8a24.81,24.81,0,0,0,8,18,24.38,24.38,0,0,0,16,6Z"/><line class="cls-2" x1="9.5" y1="96.2" x2="12.5" y2="96.2"/><line class="cls-3" x1="18.31" y1="96.2" x2="189.6" y2="96.2"/><line class="cls-2" x1="192.5" y1="96.2" x2="195.5" y2="96.2"/><rect x="54.5" y="34.2" width="4" height="33"/><rect x="62.5" y="34.2" width="2" height="33"/><rect x="65.5" y="34.2" width="5" height="33"/><rect x="75.5" y="34.2" width="1" height="33"/><rect x="85.5" y="34.2" width="2" height="33"/><rect x="93.5" y="34.2" width="5" height="33"/><rect x="89.5" y="34.2" width="2" height="33"/><rect x="100.5" y="34.2" width="2" height="33"/><rect x="82.5" y="34.2" width="1" height="33"/><rect x="103.5" y="34.2" width="1" height="33"/><rect x="106.5" y="34.2" width="2" height="33"/><rect x="115.5" y="34.2" width="2" height="33"/><rect x="126.5" y="34.2" width="2" height="33"/><rect x="140.5" y="34.2" width="4" height="33"/><rect x="135.5" y="34.2" width="2" height="33"/><rect x="129.5" y="34.2" width="4" height="33"/><rect x="123.5" y="34.2" width="1" height="33"/><rect x="146.5" y="34.2" width="1" height="33"/><rect x="148.5" y="34.2" width="2" height="33"/><rect x="118.5" y="34.2" width="4" height="33"/><rect x="109.5" y="34.2" width="4" height="33"/><rect x="77.5" y="34.2" width="3" height="33"/><rect x="59.5" y="34.2" width="1" height="33" transform="translate(120 101.4) rotate(180)"/><circle class="cls-4" cx="102.5" cy="232.2" r="84"/><path class="cls-5" d="M310.48,115V217c0,38.62,17.14,55,40.16,55,25.57,0,41.94-16.88,41.94-55V115h22.51V215.49c0,52.94-27.88,74.68-65.22,74.68C314.58,290.17,288,270,288,216.51V115Z"/><path class="cls-5" d="M472.87,287.36V115h24.29l55.25,87.21a486.23,486.23,0,0,1,30.94,56l.52-.26c-2-23-2.56-44-2.56-70.84V115h21V287.36H579.77L525,199.89c-12-19.18-23.53-38.88-32.22-57.55l-.77.26c1.28,21.74,1.79,42.45,1.79,71.1v73.66Z"/><path class="cls-5" d="M682.57,115V287.36H660.32V115Z"/><path class="cls-5" d="M773.36,133.9H720.93V115H848.55V133.9H795.86V287.36h-22.5Z"/><path class="cls-5" d="M909.15,115V287.36H886.9V115Z"/><path class="cls-5" d="M1087.66,281.73c-8.19,4.09-24.56,8.18-45.53,8.18-48.59,0-85.16-30.69-85.16-87.21,0-54,36.57-90.54,90-90.54,21.48,0,35,4.61,40.92,7.68L1082.54,138c-8.44-4.09-20.46-7.16-34.78-7.16-40.41,0-67.27,25.83-67.27,71.1,0,42.2,24.3,69.31,66.24,69.31,13.56,0,27.37-2.81,36.32-7.16Z"/><path class="cls-5" d="M1134.7,115H1157V198.1h.77c4.6-6.65,9.2-12.79,13.55-18.42L1224,115h27.62l-62.41,73.14,67.27,99.24h-26.35l-56.77-84.66L1157,221.63v65.73H1134.7Z"/><path class="cls-5" d="M1381.74,206.54h-67v62.15h74.68v18.67h-96.93V115h93.1v18.67h-70.85v54.47h67Z"/><path class="cls-5" d="M1474.31,133.9h-52.43V115H1549.5V133.9h-52.69V287.36h-22.5Z"/><line class="cls-6" x1="242.5" y1="397.81" x2="242.5"/></g></g></svg>