<svg xmlns="http://www.w3.org/2000/svg" viewBox="0 0 206 389"><defs><style>.cls-1{fill:#d9d9d9;stroke:#774568;stroke-linejoin:round;stroke-width:5px;}.cls-2,.cls-3{fill:none;stroke:#000;stroke-miterlimit:10;stroke-width:3px;}.cls-3{stroke-dasharray:5.81 5.81;}.cls-4{fill:#fff;}</style></defs><g id="Capa_2" data-name="Capa 2"><g id="Capa_1-2" data-name="Capa 1"><rect x="71.5" y="27.5" width="3" height="33"/><path class="cls-1" d="M203.5,362.5a24.38,24.38,0,0,0-16,6,24.79,24.79,0,0,0-8,18h-8a5,5,0,0,0-10.05,0H154.5a5,5,0,0,0-10,0h-9a5,5,0,0,0-10,0h-7.07a5.48,5.48,0,0,0-10.93,0h-9a5.48,5.48,0,0,0-10.93,0H80.5a5,5,0,0,0-10,0h-9a5,5,0,0,0-10,0h-7a5,5,0,0,0-10,0h-8a24.79,24.79,0,0,0-8-18,24.38,24.38,0,0,0-16-6V26.5a24.38,24.38,0,0,0,16-6,24.79,24.79,0,0,0,8-18h8a5,5,0,0,0,10,0h7a5,5,0,0,0,10,0h9a5,5,0,0,0,10,0h7.07a5.63,5.63,0,0,0,4.93,5,5.67,5.67,0,0,0,6-5h9a5.67,5.67,0,0,0,6,5,5.63,5.63,0,0,0,4.93-5h7.07a5,5,0,0,0,10,0h9a5,5,0,0,0,10,0h6.95a5,5,0,0,0,10.05,0h8a24.79,24.79,0,0,0,8,18,24.38,24.38,0,0,0,16,6Z"/><line class="cls-2" x1="9.5" y1="89.5" x2="12.5" y2="89.5"/><line class="cls-3" x1="18.31" y1="89.5" x2="189.6" y2="89.5"/><line class="cls-2" x1="192.5" y1="89.5" x2="195.5" y2="89.5"/><rect x="54.5" y="27.5" width="4" height="33"/><rect x="62.5" y="27.5" width="2" height="33"/><rect x="65.5" y="27.5" width="5" height="33"/><rect x="75.5" y="27.5" width="1" height="33"/><rect x="85.5" y="27.5" width="2" height="33"/><rect x="93.5" y="27.5" width="5" height="33"/><rect x="89.5" y="27.5" width="2" height="33"/><rect x="100.5" y="27.5" width="2" height="33"/><rect x="82.5" y="27.5" width="1" height="33"/><rect x="103.5" y="27.5" width="1" height="33"/><rect x="106.5" y="27.5" width="2" height="33"/><rect x="115.5" y="27.5" width="2" height="33"/><rect x="126.5" y="27.5" width="2" height="33"/><rect x="140.5" y="27.5" width="4" height="33"/><rect x="135.5" y="27.5" width="2" height="33"/><rect x="129.5" y="27.5" width="4" height="33"/><rect x="123.5" y="27.5" width="1" height="33"/><rect x="146.5" y="27.5" width="1" height="33"/><rect x="148.5" y="27.5" width="2" height="33"/><rect x="118.5" y="27.5" width="4" height="33"/><rect x="109.5" y="27.5" width="4" height="33"/><rect x="77.5" y="27.5" width="3" height="33"/><rect x="59.5" y="27.5" width="1" height="33" transform="translate(120 88) rotate(180)"/><circle class="cls-4" cx="102.5" cy="225.5" r="84"/></g></g></svg>